<svg width="136" height="96" viewBox="0 0 136 96" fill="none" xmlns="http://www.w3.org/2000/svg">
<rect width="136" height="96" fill="#5F5F5F"/>
<path d="M16.6406 87.0078C16.6406 86.6172 16.4922 86.3151 16.1953 86.1016C15.9036 85.8828 15.3906 85.6953 14.6562 85.5391C13.9271 85.3828 13.3464 85.1953 12.9141 84.9766C12.487 84.7578 12.1693 84.4974 11.9609 84.1953C11.7578 83.8932 11.6562 83.5339 11.6562 83.1172C11.6562 82.4245 11.9479 81.8385 12.5312 81.3594C13.1198 80.8802 13.8698 80.6406 14.7812 80.6406C15.7396 80.6406 16.5156 80.888 17.1094 81.3828C17.7083 81.8776 18.0078 82.5104 18.0078 83.2812H16.5547C16.5547 82.8854 16.3854 82.5443 16.0469 82.2578C15.7135 81.9714 15.2917 81.8281 14.7812 81.8281C14.2552 81.8281 13.8438 81.9427 13.5469 82.1719C13.25 82.401 13.1016 82.7005 13.1016 83.0703C13.1016 83.4193 13.2396 83.6823 13.5156 83.8594C13.7917 84.0365 14.2891 84.2057 15.0078 84.3672C15.7318 84.5286 16.3177 84.7214 16.7656 84.9453C17.2135 85.1693 17.5443 85.4401 17.7578 85.7578C17.9766 86.0703 18.0859 86.4531 18.0859 86.9062C18.0859 87.6615 17.7839 88.2682 17.1797 88.7266C16.5755 89.1797 15.7917 89.4062 14.8281 89.4062C14.151 89.4062 13.5521 89.2865 13.0312 89.0469C12.5104 88.8073 12.1016 88.474 11.8047 88.0469C11.513 87.6146 11.3672 87.1484 11.3672 86.6484H12.8125C12.8385 87.1328 13.0312 87.5182 13.3906 87.8047C13.7552 88.0859 14.2344 88.2266 14.8281 88.2266C15.375 88.2266 15.8125 88.1172 16.1406 87.8984C16.474 87.6745 16.6406 87.3776 16.6406 87.0078ZM21.3281 80.7969L21.3672 81.7344C21.987 81.0052 22.8229 80.6406 23.875 80.6406C25.0573 80.6406 25.862 81.0938 26.2891 82C26.5703 81.5938 26.9349 81.2656 27.3828 81.0156C27.8359 80.7656 28.3698 80.6406 28.9844 80.6406C30.8385 80.6406 31.7812 81.6224 31.8125 83.5859V89.25H30.3672V83.6719C30.3672 83.0677 30.2292 82.6172 29.9531 82.3203C29.6771 82.0182 29.2135 81.8672 28.5625 81.8672C28.026 81.8672 27.5807 82.0286 27.2266 82.3516C26.8724 82.6693 26.6667 83.099 26.6094 83.6406V89.25H25.1562V83.7109C25.1562 82.4818 24.5547 81.8672 23.3516 81.8672C22.4036 81.8672 21.7552 82.2708 21.4062 83.0781V89.25H19.9609V80.7969H21.3281ZM39.2188 89.25C39.1354 89.0833 39.0677 88.7865 39.0156 88.3594C38.3438 89.0573 37.5417 89.4062 36.6094 89.4062C35.776 89.4062 35.0911 89.1719 34.5547 88.7031C34.0234 88.2292 33.7578 87.6302 33.7578 86.9062C33.7578 86.026 34.0911 85.3438 34.7578 84.8594C35.4297 84.3698 36.3724 84.125 37.5859 84.125H38.9922V83.4609C38.9922 82.9557 38.8411 82.5547 38.5391 82.2578C38.237 81.9557 37.7917 81.8047 37.2031 81.8047C36.6875 81.8047 36.2552 81.9349 35.9062 82.1953C35.5573 82.4557 35.3828 82.7708 35.3828 83.1406H33.9297C33.9297 82.7188 34.0781 82.3125 34.375 81.9219C34.6771 81.526 35.0833 81.2135 35.5938 80.9844C36.1094 80.7552 36.6745 80.6406 37.2891 80.6406C38.263 80.6406 39.026 80.8854 39.5781 81.375C40.1302 81.8594 40.4167 82.5286 40.4375 83.3828V87.2734C40.4375 88.0495 40.5365 88.6667 40.7344 89.125V89.25H39.2188ZM36.8203 88.1484C37.2734 88.1484 37.7031 88.0312 38.1094 87.7969C38.5156 87.5625 38.8099 87.2578 38.9922 86.8828V85.1484H37.8594C36.0885 85.1484 35.2031 85.6667 35.2031 86.7031C35.2031 87.1562 35.3542 87.5104 35.6562 87.7656C35.9583 88.0208 36.3464 88.1484 36.8203 88.1484ZM44.2734 89.25H42.8281V77.25H44.2734V89.25ZM48.1641 89.25H46.7188V77.25H48.1641V89.25ZM58.5391 82.0938C58.3203 82.0573 58.0833 82.0391 57.8281 82.0391C56.8802 82.0391 56.237 82.4427 55.8984 83.25V89.25H54.4531V80.7969H55.8594L55.8828 81.7734C56.3568 81.0182 57.0286 80.6406 57.8984 80.6406C58.1797 80.6406 58.3932 80.6771 58.5391 80.75V82.0938ZM59.3359 84.9453C59.3359 84.1172 59.4974 83.3724 59.8203 82.7109C60.1484 82.0495 60.6016 81.5391 61.1797 81.1797C61.763 80.8203 62.4271 80.6406 63.1719 80.6406C64.3229 80.6406 65.2526 81.0391 65.9609 81.8359C66.6745 82.6328 67.0312 83.6927 67.0312 85.0156V85.1172C67.0312 85.9401 66.8724 86.6797 66.5547 87.3359C66.2422 87.987 65.7917 88.4948 65.2031 88.8594C64.6198 89.224 63.9479 89.4062 63.1875 89.4062C62.0417 89.4062 61.112 89.0078 60.3984 88.2109C59.6901 87.4141 59.3359 86.3594 59.3359 85.0469V84.9453ZM60.7891 85.1172C60.7891 86.0547 61.0052 86.8073 61.4375 87.375C61.875 87.9427 62.4583 88.2266 63.1875 88.2266C63.9219 88.2266 64.5052 87.9401 64.9375 87.3672C65.3698 86.7891 65.5859 85.9818 65.5859 84.9453C65.5859 84.0182 65.3646 83.2682 64.9219 82.6953C64.4844 82.1172 63.901 81.8281 63.1719 81.8281C62.4583 81.8281 61.8828 82.112 61.4453 82.6797C61.0078 83.2474 60.7891 84.0599 60.7891 85.1172ZM68.4609 84.9453C68.4609 84.1172 68.6224 83.3724 68.9453 82.7109C69.2734 82.0495 69.7266 81.5391 70.3047 81.1797C70.888 80.8203 71.5521 80.6406 72.2969 80.6406C73.4479 80.6406 74.3776 81.0391 75.0859 81.8359C75.7995 82.6328 76.1562 83.6927 76.1562 85.0156V85.1172C76.1562 85.9401 75.9974 86.6797 75.6797 87.3359C75.3672 87.987 74.9167 88.4948 74.3281 88.8594C73.7448 89.224 73.0729 89.4062 72.3125 89.4062C71.1667 89.4062 70.237 89.0078 69.5234 88.2109C68.8151 87.4141 68.4609 86.3594 68.4609 85.0469V84.9453ZM69.9141 85.1172C69.9141 86.0547 70.1302 86.8073 70.5625 87.375C71 87.9427 71.5833 88.2266 72.3125 88.2266C73.0469 88.2266 73.6302 87.9401 74.0625 87.3672C74.4948 86.7891 74.7109 85.9818 74.7109 84.9453C74.7109 84.0182 74.4896 83.2682 74.0469 82.6953C73.6094 82.1172 73.026 81.8281 72.2969 81.8281C71.5833 81.8281 71.0078 82.112 70.5703 82.6797C70.1328 83.2474 69.9141 84.0599 69.9141 85.1172ZM79.3281 80.7969L79.3672 81.7344C79.987 81.0052 80.8229 80.6406 81.875 80.6406C83.0573 80.6406 83.862 81.0938 84.2891 82C84.5703 81.5938 84.9349 81.2656 85.3828 81.0156C85.8359 80.7656 86.3698 80.6406 86.9844 80.6406C88.8385 80.6406 89.7812 81.6224 89.8125 83.5859V89.25H88.3672V83.6719C88.3672 83.0677 88.2292 82.6172 87.9531 82.3203C87.6771 82.0182 87.2135 81.8672 86.5625 81.8672C86.026 81.8672 85.5807 82.0286 85.2266 82.3516C84.8724 82.6693 84.6667 83.099 84.6094 83.6406V89.25H83.1562V83.7109C83.1562 82.4818 82.5547 81.8672 81.3516 81.8672C80.4036 81.8672 79.7552 82.2708 79.4062 83.0781V89.25H77.9609V80.7969H79.3281Z" fill="black"/>
</svg>
